<?xml version="1.0" encoding="utf-8"?>
<!-- Generator: Adobe Illustrator 24.0.2, SVG Export Plug-In . SVG Version: 6.00 Build 0)  -->
<svg version="1.2" baseProfile="tiny" id="Layer_1" xmlns="http://www.w3.org/2000/svg" xmlns:xlink="http://www.w3.org/1999/xlink"
	 x="0px" y="0px" viewBox="0 0 512 512" xml:space="preserve">
<path id="Ear_left_1_" fill="#A1DADB" d="M91.3132706,39.5910721c-1.467804,2.0842857-2.6248322,4.3708801-3.4347687,6.7880478
	l-17.6055527,83.7775116c-2.0071564,5.990097-1.7914276,12.5025024,0.6077499,18.3466492l27.1375275,54.7407837
	l91.1983871-92.6793671L128.1390381,9.4472828c-2.2714005-3.7604327-7.5591278-4.1910214-10.4090042-0.8476238
	L91.3132706,39.5910721z"/>
<path id="Ear_right_1_" fill="#A1DADB" d="M420.6867371,39.5910721c1.467804,2.0842857,2.6248169,4.3708801,3.4347534,6.7880478
	l17.6055603,83.7775116c2.0071411,5.990097,1.7914124,12.5025024-0.6077576,18.3466492l-27.1375122,54.7407837
	l-91.1983948-92.6793671L383.8609619,9.4472828c2.2713928-3.7604327,7.5591125-4.1910214,10.4089966-0.8476238
	L420.6867371,39.5910721z"/>
<path id="Neck_1_" fill="#047F7C" stroke="#03514D" stroke-width="4" stroke-miterlimit="10" d="M256,506.3372803
	c31.7882385,0,62.1054688-6.058075,90.0786743-16.8613281c9.0829773-3.5078735,14.3261414-13.0431824,12.4165649-22.5909119
	l-15.9707031-79.8527527L301.17099,433.9370117c-7.1749573,8.1362915-16.3410645,14.2042542-26.5716858,17.5868225
	c-12.2864075,4.0633545-25.5274048,4.0633545-37.8147583,0c-10.2296753-3.3825684-19.3967438-9.450531-26.5707245-17.5868225
	L169.295166,387.526001l-15.8186646,79.3614197c-1.9022827,9.5437012,3.3404388,19.0706787,12.417984,22.5776672
	C193.8755951,500.275177,224.2016907,506.3372803,256,506.3372803z"/>
<path fill="#047F7C" d="M133.3664551,225.2301941l61.6923523,37.0144348
	c8.4043427,5.0429993,13.5466614,14.1252136,13.5466614,23.9267578c0,8.7244873,7.0727234,15.7981873,15.798172,15.7981873H256
	h31.596344c8.7254639,0,15.7981873-7.0737,15.7981873-15.7981873c0-9.8015442,5.1423035-18.8837585,13.5466614-23.9267578
	l61.6923523-37.0144348c2.4549561-1.4733582,5.2647705-2.2515106,8.1276245-2.2515106h27.0933228l0.1272888-19.7351837
	l-58.4168091-59.3656311l39.7509766-111.2573853c1.1358643-3.1800785,5.1152954-4.220499,7.6628418-2.0046654l21.8198853,18.9830742
	l-0.6769104-3.2196083c-0.809967-2.4173622-1.9670715-4.7045479-3.4346313-6.7882805L394.2697144,8.5992298
	c-2.8502808-3.3439994-8.1372375-2.912982-10.4089966,0.8475704l-61.0771484,101.1174011h-65.7672424h-67.7950592
	c-0.0048218,0-61.0819855-101.1174011-61.0819855-101.1174011c-2.2717514-3.7605524-7.5587082-4.1915698-10.4090118-0.8475704
	L91.3128738,39.5910034c-1.4675827,2.0837326-2.6246719,4.3709183-3.434639,6.7882805l-0.6769028,3.2196083l21.8198853-18.9830742
	c2.5475311-2.2158337,6.5269699-1.1754131,7.6628494,2.0046654l39.6468353,111.3673096l-58.3126755,59.2557068l0.0086746,19.7351837
	h27.211937C128.1016846,222.9786835,130.9114838,223.7568359,133.3664551,225.2301941z"/>
<path fill="#A1DADB" d="M105.8449936,314.9164734l52.557106,60.2546692l51.8859711,58.8497314
	c7.1238403,8.0803833,16.2687378,14.1213684,26.4964752,17.5029602c6.2386627,2.0625305,12.7289886,3.0547485,19.2154541,3.0209961
	V301.969574h-31.5963593c-8.7254486,0-15.798172-7.0737-15.798172-15.7981873
	c0-9.8015442-5.1423187-18.8837585-13.5466614-23.9267578l-61.6923523-37.0144348
	c-2.4549713-1.4733582-5.2647705-2.2515106-8.1276169-2.2515106h-27.211937l0.0327911,71.1824493
	C98.0625839,301.7931213,100.8280334,309.1657104,105.8449936,314.9164734z"/>
<path fill="#A1DADB" d="M378.6335449,225.2301941l-61.6923523,37.0144348
	c-8.4043579,5.0429993-13.5466614,14.1252136-13.5466614,23.9267578c0,8.7244873-7.0727234,15.7981873-15.7981873,15.7981873H256
	v152.5752563c6.2810974-0.0318298,12.5592957-1.0230713,18.5993042-3.0209961
	c10.2286987-3.3815918,19.3735962-9.4225769,26.4974365-17.5029602l51.8850098-58.8497314l52.6284485-60.3356628
	c4.9745483-5.7025452,7.736145-12.999939,7.7853088-20.5663757l0.4589844-71.2904205h-27.0933228
	C383.8983154,222.9786835,381.088501,223.7568359,378.6335449,225.2301941z"/>
<path id="Mask_1_" fill="#1CACAB" d="M413.981781,203.2434998l-48.9248047-49.7193298l-67.9763184,43.8355103
	c-3.8357544,2.4588165-6.421875,6.4546509-7.0939331,10.9595947l-2.2727356,15.2408447
	c-1.366333,9.1651459-9.2364807,14.941925-18.5038452,14.941925H256h-13.210144
	c-9.2673492,0-17.1375122-5.7767792-18.5038452-14.941925l-2.2727203-15.2408447
	c-0.6720886-4.5049438-3.258194-8.5007782-7.0939484-10.9595947l-67.9743958-43.8335724l-48.9267197,49.717392l0.0250702,54.047821
	h17.9407272c6.611824,0,11.9720535,5.3592529,11.9720535,11.9710999v4.3805542c0,4.5464172,1.9603195,8.8720093,5.3795242,11.868866
	l52.4568176,45.9761353c3.4192047,2.9968872,7.0939331,7.6676636,7.0939331,12.2140808v70.5817261l17.4017181,19.7370911
	c7.1238403,8.0803833,16.2687378,14.1213684,26.4964752,17.5029602c12.2786865,4.0604553,25.5370483,4.0604553,37.8147583,0
	c10.2286987-3.3815918,19.3735962-9.4225769,26.4974365-17.5029602l18.0169067-20.4352112v-69.883606
	c0-4.5464172,3.6747437-9.2171936,7.0939331-12.2140808l52.4568176-45.9761353
	c3.41922-2.9968567,5.3795166-7.3224487,5.3795166-11.868866v-4.3805542c0-6.6118469,5.3602295-11.9710999,11.9720459-11.9710999
	h17.6177063L413.981781,203.2434998z"/>
<path fill="none" stroke="#03514D" stroke-width="4" stroke-miterlimit="10" d="M441.7270508,130.1566162l-16.9290161-80.5582886
	l0.0006104,0.0005493l-0.6768799-3.2196045c-0.8099365-2.4173584-1.967041-4.7045288-3.4346313-6.788269L394.2697144,8.5992432
	c-2.8502808-3.3440552-8.1372681-2.9130249-10.4089966,0.8475342L322.7835693,110.564209h-65.7672729h-67.7950439
	c-0.0048218,0-61.0819702-101.1174316-61.0819702-101.1174316c-2.2717285-3.7605591-7.5587158-4.1915894-10.4089966-0.8475342
	L91.3128662,39.5910034c-1.4675903,2.0837402-2.6246948,4.3709106-3.4346313,6.788269L87.201355,49.598877l0.0006104-0.0005493
	l-16.9290161,80.5582886c-2.0071411,5.9901123-1.7914429,12.5025024,0.6077271,18.3466797l27.1375732,54.7407227l0,0
	l0.008667,19.7346191l0.0327759,71.1824951c0.0028687,7.631958,2.7683716,15.0045776,7.7852783,20.7553101l52.5571289,60.2546997
	l34.4842529,39.1124878v0.0001221l17.4017334,19.7371216c7.1238403,8.0803833,16.2687378,14.1213379,26.49646,17.5029297
	c12.2786865,4.0604858,25.5370483,4.0604858,37.8147583,0c10.2286987-3.3815918,19.3735962-9.4225464,26.4974365-17.5029297
	l18.0169067-20.4352417v-0.0001221l33.868103-38.4143677l52.628479-60.3356934
	c4.9744873-5.7025146,7.736084-12.999939,7.7852783-20.5663452l0.2380981-36.9777832h0.000061l0.3480835-54.0473022l0,0
	l27.1375732-54.7407227C443.5184937,142.6591187,443.7341919,136.1467285,441.7270508,130.1566162z"/>
</svg>
